HIERARCHY
ROOT Hips
{
	OFFSET 0.000000 0.000000 0.000000
	CHANNELS 6 Xposition Yposition Zposition Zrotation Yrotation Xrotation 
	JOINT LeftUpLeg_virtual
	{
		OFFSET 0.000000 0.000000 0.000000
		CHANNELS 3 Zrotation Yrotation Xrotation
		JOINT LeftUpLeg
		{
			OFFSET 8.479694 -4.795517 -0.379053
			CHANNELS 3 Zrotation Yrotation Xrotation
			JOINT LeftLeg
			{
				OFFSET 0.485052 -32.551468 0.112863
				CHANNELS 3 Zrotation Yrotation Xrotation
				JOINT LeftFoot
				{
					OFFSET 0.438033 -32.635670 -3.012641
					CHANNELS 3 Zrotation Yrotation Xrotation
					JOINT LeftToeBase
					{
						OFFSET 0.970169 -13.225353 11.864223
						CHANNELS 3 Zrotation Yrotation Xrotation
						End Site
						{
							OFFSET 0.000000 0.000000 0.000000
						}
					}
				}
			}
		}
	}
	JOINT RightUpLeg_virtual
	{
		OFFSET 0.000000 0.000000 0.000000
		CHANNELS 3 Zrotation Yrotation Xrotation
		JOINT RightUpLeg
		{
			OFFSET -8.479694 -4.795517 -0.379053
			CHANNELS 3 Zrotation Yrotation Xrotation
			JOINT RightLeg
			{
				OFFSET -0.484100 -32.551483 0.112903
				CHANNELS 3 Zrotation Yrotation Xrotation
				JOINT RightFoot
				{
					OFFSET -0.438985 -32.635651 -3.012681
					CHANNELS 3 Zrotation Yrotation Xrotation
					JOINT RightToeBase
					{
						OFFSET -0.970169 -13.225354 11.864223
						CHANNELS 3 Zrotation Yrotation Xrotation
						End Site
						{
							OFFSET 0.000000 0.000000 0.000000
						}
					}
				}
			}
		}
	}
	JOINT Spine_virtual
	{
		OFFSET 0.000000 0.000000 0.000000
		CHANNELS 3 Zrotation Yrotation Xrotation
		JOINT Spine
		{
			OFFSET 0.000000 7.722015 1.166203
			CHANNELS 3 Zrotation Yrotation Xrotation
			JOINT Spine1
			{
				OFFSET 0.000000 12.024086 0.248766
				CHANNELS 3 Zrotation Yrotation Xrotation
				JOINT Spine2
				{
					OFFSET -0.000000 11.503036 -0.491240
					CHANNELS 3 Zrotation Yrotation Xrotation
					JOINT Neck_virtual
					{
						OFFSET 0.000000 0.000000 0.000000
						CHANNELS 3 Zrotation Yrotation Xrotation
						JOINT Neck
						{
							OFFSET 0.000000 18.430687 -3.123054
							CHANNELS 3 Zrotation Yrotation Xrotation
							JOINT Head
							{
								OFFSET -0.000000 9.051071 1.034021
								CHANNELS 3 Zrotation Yrotation Xrotation
								End Site
								{
									OFFSET 0.000000 0.000000 0.000000
								}
							}
						}
					}
					JOINT LeftShoulder_virtual
					{
						OFFSET 0.000000 0.000000 0.000000
						CHANNELS 3 Zrotation Yrotation Xrotation
						JOINT LeftShoulder
						{
							OFFSET 6.197824 13.665230 -4.064723
							CHANNELS 3 Zrotation Yrotation Xrotation
							JOINT LeftArm
							{
								OFFSET 7.778132 -0.187073 -1.709282
								CHANNELS 3 Zrotation Yrotation Xrotation
								JOINT LeftForeArm
								{
									OFFSET 21.954697 0.000000 -2.041093
									CHANNELS 3 Zrotation Yrotation Xrotation
									JOINT LeftHand
									{
										OFFSET 22.992908 0.000000 -0.870901
										CHANNELS 3 Zrotation Yrotation Xrotation
										End Site
										{
											OFFSET 0.000000 0.000000 0.000000
										}
									}
								}
							}
						}
					}
					JOINT RightShoulder_virtual
					{
						OFFSET 0.000000 0.000000 0.000000
						CHANNELS 3 Zrotation Yrotation Xrotation
						JOINT RightShoulder
						{
							OFFSET -6.197824 13.665230 -4.064723
							CHANNELS 3 Zrotation Yrotation Xrotation
							JOINT RightArm
							{
								OFFSET -7.778132 -0.187073 -1.709282
								CHANNELS 3 Zrotation Yrotation Xrotation
								JOINT RightForeArm
								{
									OFFSET -21.954697 0.000000 -2.041093
									CHANNELS 3 Zrotation Yrotation Xrotation
									JOINT RightHand
									{
										OFFSET -22.992908 0.000000 -0.870901
										CHANNELS 3 Zrotation Yrotation Xrotation
										End Site
										{
											OFFSET 0.000000 0.000000 0.000000
										}
									}
								}
							}
						}
					}
				}
			}
		}
	}
}
MOTION
Frames: 4
Frame Time: 0.033333
-80.800491 80.146713 128.237274 0.957171 74.508690 0.752944 -1.382769 -11.954488 16.055705 -6.688636 1.736842 -45.994965 4.399946 3.108762 19.635737 -2.305410 -12.100679 -1.306597 0.000000 0.000000 0.000000 7.044980 -15.361386 13.550541 -7.272025 -8.631067 -11.377982 -0.472292 3.104351 24.341724 2.388267 10.072537 -12.800633 0.000000 0.000000 0.000000 3.959418 -7.325421 10.429084 3.629498 10.006791 -8.929307 -3.074678 -2.490553 4.621114 0.020980 0.105897 -0.057412 -2.812516 -1.430911 4.167996 -7.156567 9.586923 -1.322702 0.000000 0.000000 0.000000 -1.241254 -0.608527 0.627508 21.019473 4.213555 3.485898 -10.541594 -8.001325 -8.019306 -12.659112 -50.733105 16.732165 0.000000 0.000000 0.000000 -6.077221 0.502399 0.028535 24.101731 -1.100352 5.617160 39.300277 -5.419414 12.976413 -11.784960 50.651167 -3.202474 0.000000 0.000000 0.000000 
-78.010941 79.824287 129.160233 0.940322 77.565780 0.878012 -1.457610 -12.303061 15.970500 -7.848730 2.375235 -45.992957 5.001602 3.646867 18.188375 -1.764356 -12.388989 -1.872187 0.000000 0.000000 0.000000 6.743612 -15.840904 13.459842 -7.191259 -10.032680 -8.888478 -0.457934 3.287646 24.676927 2.930125 10.554544 -12.777582 0.000000 0.000000 0.000000 3.915772 -7.616235 10.438011 3.251855 10.359296 -9.104383 -3.428719 -2.626150 4.579889 0.044640 0.091058 -0.036421 -3.185068 -1.678972 4.028166 -5.931051 9.675550 -1.204335 0.000000 0.000000 0.000000 -1.640090 -0.798494 0.390530 23.169055 5.876086 3.454711 -8.181005 -9.023226 -12.212780 -14.401715 -51.547062 16.396468 0.000000 0.000000 0.000000 -6.478924 0.338776 -0.067080 24.716400 -0.851758 5.335824 39.431024 -2.794303 14.614416 -12.508196 51.693908 -4.769643 0.000000 0.000000 0.000000 
-74.979111 79.508545 130.096313 0.433480 80.300465 0.404767 -1.792470 -12.576291 15.946934 -8.388086 2.862118 -45.060039 5.696223 3.291745 17.317525 -1.059713 -12.288953 -0.864024 0.000000 0.000000 0.000000 7.646434 -16.143594 12.991703 -8.944819 -11.402537 -6.484778 0.221941 3.086385 25.577592 4.086263 11.709951 -12.040314 0.000000 0.000000 0.000000 3.788634 -8.001592 10.431152 2.714797 10.622921 -9.104750 -3.642842 -2.763478 4.536683 0.051297 0.071490 -0.043998 -3.413389 -1.833078 3.877379 -4.784842 9.865496 -1.183965 0.000000 0.000000 0.000000 -1.880999 -0.930313 0.198241 25.118907 7.378607 3.535993 -6.825201 -9.365271 -16.280024 -15.994012 -52.519517 16.155957 0.000000 0.000000 0.000000 -6.721360 0.335494 -0.270258 25.292271 -0.681344 4.992321 39.762930 -0.381956 16.272164 -13.172414 52.218552 -6.278981 0.000000 0.000000 0.000000 
-71.754372 79.230423 130.915863 -0.525224 82.730530 -0.621935 -2.315391 -13.016361 16.041888 -8.213287 3.195543 -43.613599 6.499102 2.464464 17.225191 -0.416543 -12.264316 0.530894 0.000000 0.000000 0.000000 6.549869 -16.460092 13.075828 -8.430243 -11.857126 -4.546797 0.407692 3.680293 26.883944 5.067897 12.581345 -9.586659 0.000000 0.000000 0.000000 3.564858 -8.170682 10.464873 2.052858 10.787230 -9.008692 -3.713144 -2.874436 4.508096 0.033024 0.056257 -0.017984 -3.476771 -1.949112 3.652262 -3.809935 9.887725 -1.236259 0.000000 0.000000 0.000000 -1.943639 -1.111330 -0.014367 26.749167 8.501569 3.668805 -6.514331 -9.225569 -19.769551 -17.252875 -53.416379 15.950015 0.000000 0.000000 0.000000 -6.743889 0.092996 -0.461977 25.752395 -0.527594 4.634773 40.268285 1.401137 18.115958 -13.775855 52.322948 -7.657814 0.000000 0.000000 0.000000 
